Coordinates
version=1
nRows=4
nColumns=107
inDegrees=yes

Units are S.I. units (second, meters, Newtons, ...)
If the header above contains a line with 'inDegrees', this indicates whether rotational values are in degrees (yes) or radians (no).

endheader
time	sternoclavicular_r2	sternoclavicular_r3	unrotscap_r3	unrotscap_r2	acromioclavicular_r2	acromioclavicular_r3	acromioclavicular_r1	unrothum_r1	unrothum_r3	unrothum_r2	elv_angle	shoulder_elv	shoulder1_r2	shoulder_rot	elbow_flexion	pro_sup	deviation	flexion	proximal_distal_r1	proximal_distal_r3	cmc_flexion	cmc_abduction	mp_flexion	ip_flexion	mcp2_flexion	mcp2_abduction	pm2_flexion	md2_flexion	mcp3_flexion	mcp3_abduction	pm3_flexion	md3_flexion	mcp4_flexion	mcp4_abduction	pm4_flexion	md4_flexion	mcp5_flexion	mcp5_abduction	pm5_flexion	md5_flexion	bicpt_tx	bicpt_ty	bicpt_tz	bicpt2_tx	bicpt2_ty	bicpt2_tz	ptpt_tx	ptpt_ty	ptpt_tz	FCUpt_tx	FCUpt_ty	FCUpt_tz	EDCpt_tx	EDCpt_ty	EDCpt_tz	APLpt_tx	APLpt_ty	APLpt_tz	FPLpt_tx	FPLpt_ty	FPLpt_tz	FPLpt2_tx	FPLpt2_ty	FPLpt2_tz	PEC1pt2_tx	PEC1pt2_ty	PEC1pt2_tz	PEC1pt3_tx	PEC1pt3_ty	PEC1pt3_tz	PEC2pt2_tx	PEC2pt2_ty	PEC2pt2_tz	PEC2pt3_tx	PEC2pt3_ty	PEC2pt3_tz	PEC3pt2_tx	PEC3pt2_ty	PEC3pt2_tz	PEC3pt3_tx	PEC3pt3_ty	PEC3pt3_tz	DELT2pt2a_tx	DELT2pt2a_ty	DELT2pt2a_tz	DELT2pt2_tx	DELT2pt2_ty	DELT2pt2_tz	LAT1pt2_tx	LAT1pt2_ty	LAT1pt2_tz	LAT1pt3_tx	LAT1pt3_ty	LAT1pt3_tz	LAT2pt2_tx	LAT2pt2_ty	LAT2pt2_tz	LAT2pt3_tx	LAT2pt3_ty	LAT2pt3_tz	LAT3pt2_tx	LAT3pt2_ty	LAT3pt2_tz	LAT3pt3_tx	LAT3pt3_ty	LAT3pt3_tz
      1.06666667	     -0.32857137	      0.13916732	     -0.13916732	      0.32857137	     -0.06652902	      0.53766412	      0.24167632	     -0.24167632	     -0.53766412	      0.06652902	     98.73359926	     77.79219173	     -1.72322639	    -18.34609514	     28.28716200	     42.48823287	      0.19407317	      0.04682871	      0.23255610	      0.02341435	     33.96985075	    -13.00812326	     14.24774497	      0.47165605	    -10.07414338	     12.32846517	     10.47311810	    -35.81284927	    -12.23908206	      0.49647041	      7.08683226	     10.35559532	    -10.24569113	     -6.83648640	     -8.77750443	     21.76731014	    -24.82160253	    -13.69430546	     -6.94326465	      4.88876211	      0.00083565	     -0.03084214	     -0.00482222	      0.01657198	     -0.01788435	     -0.00720007	      0.00441060	     -0.06692999	     -0.00347266	      0.00803170	     -0.18344242	     -0.00040175	     -0.00509858	      0.00148242	      0.00012688	     -0.00004975	     -0.00001990	     -0.00009949	     -0.00006367	     -0.00019102	     -0.00010745	     -0.00001233	     -0.00020816	     -0.00024980	      0.00254986	      0.00894611	      0.00622338	     -0.00834106	      0.02013955	     -0.01910232	      0.00254986	      0.00894611	      0.00622338	      0.00056183	      0.01867014	     -0.00981047	      0.00400898	      0.00497482	      0.01611491	      0.00000000	      0.00809569	      0.00000000	     -0.00730383	     -0.03375320	     -0.00667698	      0.01280357	     -0.00038169	     -0.00274593	     -0.00090758	      0.01521271	     -0.00622338	      0.00250664	      0.02195470	     -0.01815153	     -0.00609373	      0.01318147	     -0.00557511	     -0.01270607	      0.02783234	     -0.03116012	     -0.02385629	      0.01473731	     -0.00747670	     -0.01581776	      0.03215413	     -0.03893935
      1.10000000	     -0.32920040	      0.13943375	     -0.13943375	      0.32920040	     -0.06665638	      0.53869345	      0.24213900	     -0.24213900	     -0.53869345	      0.06665638	     98.56847203	     77.94112032	     -1.72034438	    -17.62405211	     28.50478493	     43.36715234	      0.20079091	      0.02496158	      0.23950193	      0.01248079	     34.55025646	    -14.21731131	     13.78511893	      0.23926273	    -10.69030507	     11.89602986	     11.40026728	    -34.45393758	     -9.72597434	      0.81882493	      7.56393421	     10.66249652	     -7.17088707	     -6.18096890	     -8.49141559	     21.64644770	    -20.57528354	    -13.62096897	     -7.13485933	      4.89104493	      0.00084285	     -0.03086708	     -0.00482624	      0.01656775	     -0.01794346	     -0.00710265	      0.00434566	     -0.06697198	     -0.00354346	      0.00812098	     -0.18342341	     -0.00040606	     -0.00520405	      0.00151896	      0.00011918	     -0.00002605	     -0.00001042	     -0.00005211	     -0.00003335	     -0.00010005	     -0.00005628	     -0.00001258	     -0.00020058	     -0.00024070	      0.00255474	      0.00896324	      0.00623529	     -0.00835703	      0.02017811	     -0.01913889	      0.00255474	      0.00896324	      0.00623529	      0.00056291	      0.01870588	     -0.00982925	      0.00401452	      0.00498434	      0.01612809	      0.00000000	      0.00812695	      0.00000000	     -0.00731781	     -0.03381781	     -0.00670292	      0.01236746	     -0.00036011	     -0.00251879	     -0.00090931	      0.01524183	     -0.00623529	      0.00251144	      0.02199673	     -0.01818628	     -0.00610539	      0.01320670	     -0.00558579	     -0.01273039	      0.02788562	     -0.03121978	     -0.02390196	      0.01476552	     -0.00749101	     -0.01584804	      0.03221569	     -0.03901389
      1.13333333	     -0.32541916	      0.13783220	     -0.13783220	      0.32541916	     -0.06589076	      0.53250595	      0.23935776	     -0.23935776	     -0.53250595	      0.06589076	     99.29308855	     77.04587904	     -1.73299132	    -21.91835245	     28.88379841	     48.62111846	      0.17087138	     -0.03479926	      0.20799890	     -0.01739963	     35.00735049	    -15.68550722	     13.69011691	     -0.45551900	    -10.95174072	     11.24256227	     12.66750191	    -33.94089594	     -7.21485270	      1.19593332	      8.05479712	     11.48073597	     -4.26988316	     -5.55238994	     -7.93995076	     22.95444061	    -16.89360507	    -13.48666352	     -5.90380315	      4.89322676	      0.00085539	     -0.03091052	     -0.00483324	      0.01650550	     -0.01804643	     -0.00649761	      0.00395745	     -0.06722300	     -0.00396669	      0.00865967	     -0.18330517	     -0.00041963	     -0.00583452	      0.00174241	      0.00006439	      0.00003459	      0.00001384	      0.00006919	      0.00004428	      0.00013284	      0.00007472	     -0.00001273	     -0.00019434	     -0.00023321	      0.00252539	      0.00886028	      0.00616368	     -0.00826104	      0.01994634	     -0.01891906	      0.00252539	      0.00886028	      0.00616368	      0.00055644	      0.01849103	     -0.00971635	      0.00398107	      0.00492709	      0.01604806	      0.00000000	      0.00793998	      0.00000000	     -0.00723376	     -0.03342938	     -0.00654776	      0.01485864	     -0.00049157	     -0.00399276	     -0.00089887	      0.01506676	     -0.00616368	      0.00248259	      0.02174408	     -0.01797739	     -0.00603527	      0.01305501	     -0.00552163	     -0.01258417	      0.02756533	     -0.03086118	     -0.02362742	      0.01459593	     -0.00740497	     -0.01566601	      0.03184566	     -0.03856578
      1.16666667	     -0.32600485	      0.13808027	     -0.13808027	      0.32600485	     -0.06600935	      0.53346436	      0.23978856	     -0.23978856	     -0.53346436	      0.06600935	     99.05233230	     77.18454680	     -1.72878933	    -21.41475128	     29.35485601	     48.74537442	      0.16388699	     -0.03620046	      0.20043362	     -0.01810023	     34.14219294	    -16.63231260	     13.02357310	     -0.56390581	    -11.29950707	     10.18475564	     12.82670035	    -33.77386671	     -6.35928457	      1.39050921	      8.70056056	     11.64718831	     -3.58431301	     -4.58863200	     -7.52553776	     22.91673720	    -15.49446550	    -13.00033110	     -5.31295069	      5.04366460	      0.00087097	     -0.03096452	     -0.00484194	      0.01650326	     -0.01817439	     -0.00648283	      0.00394827	     -0.06722894	     -0.00397670	      0.00867251	     -0.18330228	     -0.00041970	     -0.00584943	      0.00174780	      0.00006291	      0.00003594	      0.00001438	      0.00007188	      0.00004600	      0.00013801	      0.00007763	     -0.00001241	     -0.00020595	     -0.00024714	      0.00252994	      0.00887623	      0.00617477	     -0.00827591	      0.01998224	     -0.01895311	      0.00252994	      0.00887623	      0.00617477	      0.00055744	      0.01852431	     -0.00973384	      0.00398627	      0.00493596	      0.01606058	      0.00000000	      0.00796879	      0.00000000	     -0.00724678	     -0.03348955	     -0.00657167	      0.01457926	     -0.00047578	     -0.00380494	     -0.00090049	      0.01509388	     -0.00617477	      0.00248706	      0.02178321	     -0.01800974	     -0.00604613	      0.01307850	     -0.00553156	     -0.01260682	      0.02761494	     -0.03091673	     -0.02366995	      0.01462220	     -0.00741830	     -0.01569420	      0.03190297	     -0.03863519
